<?xml version="1.0" standalone="no"?>
<!DOCTYPE svg PUBLIC "-//W3C//DTD SVG 20010904//EN"
 "http://www.w3.org/TR/2001/REC-SVG-20010904/DTD/svg10.dtd">
<svg version="1.0" xmlns="http://www.w3.org/2000/svg"
 width="456.000000pt" height="456.000000pt" viewBox="0 0 256.000000 256.000000"
 preserveAspectRatio="xMidYMid meet">

<g transform="translate(0.000000,256.000000) scale(0.100000,-0.100000)"
fill="#ffffff" stroke="none">
<path d="M627 2229 c-111 -27 -210 -108 -264 -217 l-38 -76 0 -655 0 -656 32
-67 c41 -88 113 -160 201 -201 l67 -32 656 0 655 0 76 38 c91 44 146 102 192
197 l31 65 0 656 0 655 -37 76 c-45 91 -103 147 -196 191 l-67 32 -635 2
c-350 1 -652 -3 -673 -8z m93 -829 l0 -680 80 0 80 0 2 509 3 509 290 -259
290 -259 52 58 c29 31 51 60 50 63 -1 3 -186 170 -412 370 l-409 364 559 3
c419 2 571 0 605 -10 58 -16 141 -96 158 -154 17 -59 17 -1209 0 -1268 -16
-55 -99 -138 -154 -154 -82 -24 -74 -93 -74 668 l0 680 -80 0 -80 0 -2 -509
-3 -509 -290 259 -290 259 -52 -58 c-29 -31 -51 -60 -50 -63 1 -3 186 -170
412 -370 l409 -364 -559 -3 c-419 -2 -571 0 -605 10 -58 16 -141 96 -158 154
-17 59 -17 1209 0 1268 23 77 128 161 206 165 l22 1 0 -680z"/>
</g>
</svg>
